<?xml version="1.0" encoding="utf-8"?>
<!-- Generator: Adobe Illustrator 18.1.1, SVG Export Plug-In . SVG Version: 6.00 Build 0)  -->
<!DOCTYPE svg PUBLIC "-//W3C//DTD SVG 1.1//EN" "http://www.w3.org/Graphics/SVG/1.1/DTD/svg11.dtd">
<svg version="1.1" id="Layer_1" xmlns="http://www.w3.org/2000/svg" xmlns:xlink="http://www.w3.org/1999/xlink" x="0px" y="0px"
	 width="854.5px" height="290.1px" viewBox="0 0 854.5 290.1" enable-background="new 0 0 854.5 290.1" xml:space="preserve">
<defs>
	<path id="XMLID_1_" d="M31.5,27.4H0V1.8h92.4v25.6H60.8v79.9H31.5V27.4z M112.8,1.8h49.9c16.1,0,27.3,4.2,34.4,11.3
		c6.2,6.2,9.3,14.2,9.3,24.6V38c0,16.3-8.6,27-21.7,32.6l25.2,36.8h-33.6l-21.3-32h-13v32h-29.3V1.8z M161.5,52.5
		c9.8,0,15.7-4.8,15.7-12.5v-0.3c0-8.4-6.2-12.7-15.8-12.7H142v25.5H161.5z M229.5,1.8h29.3v105.6h-29.3V1.8z M277.6,91.7l16.3-19.5
		c10.6,8.3,22,12.7,34.2,12.7c8,0,12.2-2.7,12.2-7.2v-0.3c0-4.5-3.5-6.8-17.9-10.3c-22.5-5.1-39.8-11.5-39.8-33v-0.3
		c0-19.6,15.5-33.8,40.9-33.8c17.9,0,32,4.8,43.4,14l-14.6,20.7c-9.7-6.9-20.2-10.4-29.6-10.4c-7.1,0-10.6,2.9-10.6,6.8v0.3
		c0,4.8,3.6,6.9,18.4,10.3c24.1,5.3,39.2,13.1,39.2,32.9v0.3c0,21.6-17,34.4-42.7,34.4C308.4,109.2,290.7,103.3,277.6,91.7z
		 M414.2,27.4h-31.5V1.8h92.4v25.6h-31.7v79.9h-29.3V27.4z M518.4,1.1h28.2l44.9,106.3h-31.4l-7.5-19h-40.9l-7.5,19h-30.6L518.4,1.1
		z M544,65.6l-11.8-29.9l-11.9,29.9H544z M609.3,1.8h27.3L680,57.6V1.8h29v105.6h-25.5l-45.2-57.9v57.9h-29V1.8z M231.9,182.8h30.9
		l25.2,40.9l25.2-40.9h30.9v105.6H315v-60.6L288,269h-0.6l-26.8-41.2v60.5h-28.6V182.8z M406.8,182H435L480,288.3h-31.4l-7.5-19
		h-40.9l-7.5,19H362L406.8,182z M432.5,246.5l-11.8-29.9l-11.9,29.9H432.5z M510,208.4h-31.5v-25.6h92.4v25.6h-31.7v79.9H510V208.4z
		 M591.2,182.8h29.3v39.5H658v-39.5h29.3v105.6H658v-40.1h-37.5v40.1h-29.3V182.8z M714.3,182.8h29.3v105.6h-29.3V182.8z
		 M762.4,272.6l16.3-19.5c10.6,8.3,22,12.7,34.2,12.7c8,0,12.2-2.7,12.2-7.2v-0.3c0-4.5-3.5-6.8-17.9-10.3
		c-22.5-5.1-39.8-11.5-39.8-33v-0.3c0-19.6,15.5-33.8,40.9-33.8c17.9,0,32,4.8,43.4,14L837,215.6c-9.7-6.9-20.2-10.4-29.6-10.4
		c-7.1,0-10.6,2.9-10.6,6.8v0.3c0,4.8,3.6,6.9,18.4,10.3c24.1,5.3,39.2,13.1,39.2,32.9v0.3c0,21.6-17,34.4-42.7,34.4
		C793.1,290.1,775.5,284.2,762.4,272.6z"/>
</defs>
<use xlink:href="#XMLID_1_"  overflow="visible" fill="#FFFFFF"/>
<clipPath id="XMLID_3_">
	<use xlink:href="#XMLID_1_"  overflow="visible"/>
</clipPath>
</svg>
