<?xml version="1.0" encoding="utf-8"?>
<!-- Generator: Adobe Illustrator 18.1.1, SVG Export Plug-In . SVG Version: 6.00 Build 0)  -->
<!DOCTYPE svg PUBLIC "-//W3C//DTD SVG 1.1//EN" "http://www.w3.org/Graphics/SVG/1.1/DTD/svg11.dtd">
<svg version="1.1" id="Calque_1" xmlns="http://www.w3.org/2000/svg" xmlns:xlink="http://www.w3.org/1999/xlink" x="0px" y="0px"
	 width="93px" height="40.4px" viewBox="38 -19 93 40.4" enable-background="new 38 -19 93 40.4" xml:space="preserve">
<metadata><?xpacket begin="﻿" id="W5M0MpCehiHzreSzNTczkc9d"?>
<x:xmpmeta xmlns:x="adobe:ns:meta/" x:xmptk="Adobe XMP Core 5.6-c014 79.156821, 2014/08/29-03:07:50        ">
   <rdf:RDF xmlns:rdf="http://www.w3.org/1999/02/22-rdf-syntax-ns#">
      <rdf:Description rdf:about=""
            xmlns:dc="http://purl.org/dc/elements/1.1/"
            xmlns:xmp="http://ns.adobe.com/xap/1.0/"
            xmlns:xmpGImg="http://ns.adobe.com/xap/1.0/g/img/"
            xmlns:xmpMM="http://ns.adobe.com/xap/1.0/mm/"
            xmlns:stRef="http://ns.adobe.com/xap/1.0/sType/ResourceRef#"
            xmlns:stEvt="http://ns.adobe.com/xap/1.0/sType/ResourceEvent#"
            xmlns:xmpTPg="http://ns.adobe.com/xap/1.0/t/pg/"
            xmlns:stDim="http://ns.adobe.com/xap/1.0/sType/Dimensions#"
            xmlns:xmpG="http://ns.adobe.com/xap/1.0/g/">
         <dc:format>image/svg+xml</dc:format>
         <xmp:CreatorTool>Adobe Illustrator CC 2014 (Macintosh)</xmp:CreatorTool>
         <xmp:CreateDate>2015-02-20T15:51:34+10:00</xmp:CreateDate>
         <xmp:ModifyDate>2015-02-20T15:51:34+10:00</xmp:ModifyDate>
         <xmp:MetadataDate>2015-02-20T15:51:34+10:00</xmp:MetadataDate>
         <xmp:Thumbnails>
            <rdf:Alt>
               <rdf:li rdf:parseType="Resource">
                  <xmpGImg:width>256</xmpGImg:width>
                  <xmpGImg:height>112</xmpGImg:height>
                  <xmpGImg:format>JPEG</xmpGImg:format>
                  <xmpGImg:image>/9j/4AAQSkZJRgABAgEASABIAAD/7QAsUGhvdG9zaG9wIDMuMAA4QklNA+0AAAAAABAASAAAAAEA&#xA;AQBIAAAAAQAB/+4ADkFkb2JlAGTAAAAAAf/bAIQABgQEBAUEBgUFBgkGBQYJCwgGBggLDAoKCwoK&#xA;DBAMDAwMDAwQDA4PEA8ODBMTFBQTExwbGxscHx8fHx8fHx8fHwEHBwcNDA0YEBAYGhURFRofHx8f&#xA;Hx8fHx8fHx8fHx8fHx8fHx8fHx8fHx8fHx8fHx8fHx8fHx8fHx8fHx8fHx8f/8AAEQgAcAEAAwER&#xA;AAIRAQMRAf/EAaIAAAAHAQEBAQEAAAAAAAAAAAQFAwIGAQAHCAkKCwEAAgIDAQEBAQEAAAAAAAAA&#xA;AQACAwQFBgcICQoLEAACAQMDAgQCBgcDBAIGAnMBAgMRBAAFIRIxQVEGE2EicYEUMpGhBxWxQiPB&#xA;UtHhMxZi8CRygvElQzRTkqKyY3PCNUQnk6OzNhdUZHTD0uIIJoMJChgZhJRFRqS0VtNVKBry4/PE&#xA;1OT0ZXWFlaW1xdXl9WZ2hpamtsbW5vY3R1dnd4eXp7fH1+f3OEhYaHiImKi4yNjo+Ck5SVlpeYmZ&#xA;qbnJ2en5KjpKWmp6ipqqusra6voRAAICAQIDBQUEBQYECAMDbQEAAhEDBCESMUEFURNhIgZxgZEy&#xA;obHwFMHR4SNCFVJicvEzJDRDghaSUyWiY7LCB3PSNeJEgxdUkwgJChgZJjZFGidkdFU38qOzwygp&#xA;0+PzhJSktMTU5PRldYWVpbXF1eX1RlZmdoaWprbG1ub2R1dnd4eXp7fH1+f3OEhYaHiImKi4yNjo&#xA;+DlJWWl5iZmpucnZ6fkqOkpaanqKmqq6ytrq+v/aAAwDAQACEQMRAD8A9U4q7FXYq7FXYq7FXYq7&#xA;FXYq7FXYq7FXYq7FXYqsmnhhQyTSLHGOruQo+84olIAWTSD1fWLfTdLk1Bh60aAcAhHxFiAKHpTf&#xA;ri059QMcDPmHnuofmBr1ySIGS0jPQRirU92av4UxdBl7Uyy5ekJHcapqVya3F1NL/ruzfrOLgzzT&#xA;lzJPxQ2LWqw3d1AawTPEfFGK/qOLKM5R5Gk3sfOvmK0IAujOg/YnHqV/2R+P8cXLx9o5odb97LNI&#xA;/MXTrgiLUIzaSHb1B8cZ+f7S4u1wdrQltMcP3MsiljljWSJw8biqupBBHiCMXaiQIsLsUuxV2Kux&#xA;V2KuxV2KuxV2KuxV2KuxV2KuxV2KuxV2KuxV2KuxV2KuxVJ7rzbodrqQ0+acrPUK7cSUVj0DNi4c&#xA;9dijPgJ3Y1+Z8knPT4uR9OkjFe1fhFcXXdsk3Ee9A2skj/l1eKzEiO7CoD2H7tqD6WOLRAk6OX9b&#xA;9TFMXVuxV2KuxV2KuxVNdC8y6lo8wMDc7cmslsx+BvGn8p9xi5Wm1k8J25dz1LRdbsdXtBcWrdNp&#xA;Im+2jeBGL0+n1Ecsbij8W92KuxV2KuxV2KuxV2KuxV2KuxV2KuxV2KuxV2KqVveWlzz+rzxzemeM&#xA;npsr8T4GhNMWEMkZciClN15u0q21lNJk5+uzKjSADgrPTiCa17+GLiz12OOTwzzTHUdUsNOhE17M&#xA;sMbHipNSSfAAAnFyMuaGMXI0rW9xBcwJPA4khkHJHXcEYs4TEhY5KmLJ435l/wCUg1D/AIzyf8Sx&#xA;eQ1n97L3lkX5mSB7qwp9n0nYH/WI/pi7Dtg3KPuQFiT/AIC1IV2F1GQPnwxaMX+Ky/rD9DGsXWux&#xA;V2KuxV2KuxV2Ko3R9Yu9JvUurZtxtJGfsuvdTi3afPLFLii9e0rU7bUrGO8tjWOQbqeqsOqn3GL1&#xA;uHNHJESCLxbXYq7FXYq7FXYq7FXYq7FXYq7FXYq7FUq8y62dG0z62sQlcusaITQVYE1P3YuLrNT4&#xA;MOKrai1T6/5ZfUVT0zJbyPwrWhVWB3+YxWObjw8f9EsS/LFqX96tesSmnyb+3F1PY59cvcl2uSj/&#xA;ABxI9Nluoqj/AFeI/hi4+pP+E3/SCdfmgxCaavYmY/dw/ri5vbJ+n4/oROi3UkP5dySIxR44pwjr&#xA;1BLtQ/e2LZp5kaMkdx+9Kvy1uJv0vcwlz6TwNIyE7Fw6AH50Y4uL2RM+IR0r9THtf/47uo/8xU3/&#xA;ACcbF1+q/vZf1j97IfzG/v8ATv8AmH/ji7DtbnH3IKwYHyNqa9xcxH7yv9MWnEf8Fn/WDHMXXOxV&#xA;2KuxV2KuxV2KuxVk/kPXWsNTFnK3+i3hC79Fk6K309Di7LszU8E+E/TL73p+L0zsVdirsVdirsVd&#xA;irsVdirsVdirsVS+91/TLLULewuJCtzc09NaEj4jxWp7VO2Lj5NVCExAncpF+ZZH6Dtx3NypA+Ub&#xA;4uF2x/dD+t+grtBkp+XrsNyltdVHyaQ0xTpj/gn+bL9KR/lmw/TFyvc25I+h1/ri4PY5/eH+r+lK&#xA;9ekUebrl+oW6Ff8AYkV/Vi42pP8AhBP9JPvzQYF9NTuBMfv4f0xc7tk7x+P6F+lvX8t7oHbiJR97&#xA;1/jiywn/AAM/FK/y5/5SBv8AjA//ABJcXF7J/vfgkmuMG1vUGHRrmYj6ZDi4WpN5Zf1j96eefmLX&#xA;OmsdybNCT9Jxc7tT6o/1UPp//KFar/xnh/WMWvF/i0/eGPYuvdirsVdirsVdirsVdirgSCCDQjoc&#xA;Vey+XtS/SWjWt2TWR0pL/rr8LfiK4vYaXN4mMSTHFyHYq7FXYq7FXYq7FXYq7FXYq7FXnfnWUjzj&#xA;Ynr6awUH/PVj/HF5/tE/4RH4femf5msP0ZaL3M5I+hD/AFxcntg+iPvW6FKB+Xd3QfZiuVP+y5f8&#xA;1Yo00v8ABD7pJP8AlswGvSg/tWzgf8Gh/hi4fZB/en+r+kJR5gdV8yXz9Qty5NPZ98XE1R/fSP8A&#xA;SZF+Z5H1mwHcJISPmVxdj2zzj8WtOfl+W98KfZkI/wCHQ/xxRhP+By9/6kv/AC9/5SNP+MUn6hi4&#xA;/ZX998Ckur/8da9/4zy/8TOLh5/7yXvKdeeZQ9xplOn1GJgfZi39MXN7SNmH9QIfTf8AlEtY/wCM&#xA;tt/xI4teH/F5++KRYuC7FXYq7FXYq7FXYq7FXYq9D/LK7L2F5ak19GRZAPaQU/40xeg7HncJR7j9&#xA;7M8XcOxV2KuxV2KuxV2KoPVdXsdKt0nvHKRvIsSkAn4mqe3YAE4tOfPHELlytWvbuK0tJrqWvpwI&#xA;0j03NFFdsWeSYhEyPIIfRdWi1XTor2JDGslQUbcgqaEVGLXp84ywEgq2+pWFxcz2sE6yXFsQJowd&#xA;1J/z3xZxzRlIxB3HN5x57lUeaWbf92sVfoFdvvxed7Tl+/8Aknf5nPS0sUp1kc1+Sj+uLm9sn0x9&#xA;6hocpH5eaht9n1VH+yC/81YsNNL/AASXxSv8u24+YgKfahcfqP8ADFxeyj+++BSfX/8Aju6j/wAx&#xA;U3/JxsXE1X97L+sfvZJ+ZTB7ywcdGhJH0ti7Htc3KPuWafIf+VcalTYrcBT9Lxf1xY4j/gcv63/E&#xA;oLyCSPM0AHdJAf8AgCcWnsv++HxSXUmLajdMerTSE/SxxcPMbmfeU585/wB/pf8A2zoP1vi5naHO&#xA;H9QfpUdMavlbWl8JLU1+bt/TFhhP7jJ74pJi4TsVdirsVdirsVdirsVdiqM0/V9R04SiymMJmAEj&#xA;KBUhelCRt17Yt2LPPHfCatRnvr24JNxcSTE9S7s36ziwlklLmSVsN1cwGsMzxEdCjFf1YojOUeRp&#xA;PdL89a9ZMBLL9ch7pNu30P8Aa++uLnYe0ssOZ4h5/regaF5l03WYq27cJ1FZLd/tj3HiPfF32m1k&#xA;Mw259ya4uU7FWP3WtXMfnO00tXAtZbdi6UH94QzA169EGLgT1EhqYw/hI+3dK/zOkpYWUf8ANKzf&#xA;8CtP+NsXF7YPoiPNN/MVzy8n3E9f723Q1/4ycR/xti5ern/g5PfH70H+XEvPy+6/77uHX71Vv+Ns&#xA;Wrsk3i+KTeR7nl5t1A9p0mYU8fVVv1YuH2bO9RLzv70p89MW80XgrUKIgP8AkUpxcTtI/v5fD7k7&#xA;/MiUva6Sa1EiyPy+iP8Ari5va8rjD4/oUNEkK/l7q3ekzADwDCIfxxYac/4JP3/qS/yAxXzLCP5k&#xA;kB/4En+GLj9ln98PilGr/wDHWvf+M8v/ABM4uJn/ALyXvKf/AJgsHvNPYdGtEI+lji5/apuUf6rW&#xA;nygfl7qcdNzdJU/MxH/jXFGKX+CTH9L9SE8isR5oswP2hKD/AMimP8MWrs0/v4/H7ilF/wD733P/&#xA;ABlf/iRxcTL9R96Z+aWZpNMLGp/R1t1/1ScXK1p3h/Ui1phH+GtbFdy1pt/s3xRh/ucn+b95SbFw&#xA;3Yq7FXYq7FXYq7FXYq7FXYq7FXYq7FVW1uri0uEuLdzHNGeSOvUHFlCZibGxD1vy1r0Ws6cs4otx&#xA;H8FxGOzeI9m7YvV6PUjNC+vVS0jXZbzXtU09wojtCvoU+1QfC9fH4sWODUmeWcD/AA8mLarecfzG&#xA;hau0csEVfZ1UH/ieLrM+StYPeArfmfJWbT4v5Vlan+sVH/GuLPtk7xHv/Qi9ZueX5dW5rvJFbx/S&#xA;jL/zRi26id6Me6Kz8tZwum34PSKQSH6V/wCbcWPZEqhLyKQeRJiPNFvU7yrKpP8AsC38MXB7Ml+/&#xA;Hnf3IbzgwbzLfkf78A+5QMWrXm80k289ytJY6ETShty23iyx1xcvtOVxx/1f1KWkSBfImsjqRLHX&#xA;/ZMgxYYD/gs/eP0ITyKxHmizA/aEoP8AyKY/wxauzT+/j8fuKUagSb+5JNSZXqf9kcXFy/WfeU98&#xA;8Sc7rTSPsmwhYD5lsXN7SNyh/UH6VtjIo8jakn7RuoqfTx/5pxRjP+CyH9IKHkpuPmexPu4++Nhi&#xA;w7ONZ4/jok9x/fyf6zfrxcSXMpp5jkV307j+zp9spr4hcXJ1Zsx/qRa03/jgax/0bf8AJw4ow/3U&#xA;/wDN+9KcXFdirsVdirsVdirsVdirsVdirsVdirsVdirIPI+qNY69FGWpDd/uJB2q32D/AMFt9OLn&#xA;9m5uDKB0lt+pH+Tr/l5zunr/AL2ev9JLep/xri36DLepP9K/1pPrl2R5pu7kdYro0P8Axiag/wCI&#xA;4uJqcn78y7pfcm35lShtZtkBqFtwdj3Z2/pi5Xa8ryAf0W9QueX5dactfiNwYyK9lMh/gMU5Z/4H&#xA;H3/rW+R7j0bHXfa19T/gFf8A5qxR2bOo5P6v60o8qS+n5j09vGUL/wAGCv8AHFxNCazR963zM5bz&#xA;DqBJr+/cfcafwxRrDeaXvTDzY5fTtB8BZIKfIAfwxcjXG4Y/6i3TJaeTdZjp1lt9/m4P/GuKMMv8&#xA;GyDzioeSyR5nsSNvicffGwxa+z/7+P46JTdMWuZWO5LsSfcnFxZn1FOfNsvqTaYaUH6Ot6fIgn+O&#xA;Lma42Yf1ItWbL/g/UVruLmE0+YP9MUYz/g8v6wU/J7cfMtgf+LCPvUjFjoDWaPvSmVg0rsOjMSPp&#xA;OLiyNlMNc+3Zf8wcH/EcXI1POP8AVDenMf0Lqy9isBP0S/24riP7ufw+9LMXGdirsVdirsVdirsV&#xA;dirsVdirsVdirsVdiq6GVopklTZ42DKfdTUYpjKjbIfJdo482Qxkn/RjKXp/kqy/rOLn9n4/8IA7&#xA;rSrW4WXXL6Lq31mUD3q5pi42ojWWQ/pH706/MOAw61Ataj6rHQ/6rMv8MXM7VjWQf1Qtvbdl8gaf&#xA;L2a7c0+fNf8AjTFGSP8AgkT/AEv1rfKEDSWWusK7WLqADTdgSP8AiOKNBG45P6iWeW4zJr+nKO1x&#xA;G3/AsG/hi42kF5Y/1g7zJHw1/UV8biRt/wDKYt/HFdWKyy/rFMPNMBj0/QnP7dku9a+Df8b4uRrY&#xA;1DH/AFGtMiJ8nazJXYS2+3ycD/jbFGGP+DzPnFR8mIX8zWIHZmbw+yjH+GLDs8Xnj+OiU3SlbmZT&#xA;1V2B+g4uLMVIpz5tiMU2mKTX/cdbU+gFf4YuZro0Yf1IrbSEHyjqEm+11BTw2DD/AI2xRjj/AIPI&#xA;/wBILPKC8vMtgOn7wn7lJxY6AXmj70pkXhIyjfiSK/I4uKRRTHXUZHsagjlZQMK+BXFyNSK4f6ob&#xA;05a6JqzeAgFPnL/ZiuIfup/D70rxcZ2KuxV2KuxV2KuxV2KuxV2KuxV2KuxV2Kr7eFp544V+1K6o&#xA;vzY0xZQjxEDveg+V7D0/OWtyU2iLAe3rPzH4Li77R4q1GQ936TaRazZ18/ehTaW5gY/J+DHw8cXC&#xA;1GP/AAuu+Q/QjfzOjpfWUv8ANEy/8C1f+NsW7tkeqJ8lfVrbj+XNn/kelL/wbH/mvFnnhWjj8Fn5&#xA;eW3qabq5I/vVWPx/Zf8A5qxR2VC4T8/2pF5Ki9TzPZDspdj/ALGNji4PZ0bzx/HRrznH6fma+XxZ&#xA;W/4JFb+OKO0BWaX46Jz5/t/S07RNt0iaM/QsdP44uZ2pCoY/d+pZokHLyBq7HblKSK+CCM4o08f8&#xA;En7/ANSB8gJy8ywH+RJG/wCEI/ji0dlj98PilGsJ6erXqUpwuJVp8nIxcTUCskh5n72QfmFAY7zT&#xA;6jpaqlT1+Bj/AFxc/tWNSj/VW2EVfy+1OSvS6Tb2BiH/ABtijFH/AASZ/pfqQnkVOXmizO1FEjGv&#xA;/GJh/HFq7NH7+Px+5KNQThf3KUpxlcU8KMcXEyipn3pv5uiEcmlAVNdOt9/lyH8MXL18aMP6kVmm&#xA;p/zq+tP4vaqPHZ2P8cUYR+4yH+qkmLhOxV2KuxV2KuxV2KuxV2KuxV2KuxV2KuxVkfkPSWvdbSdl&#xA;/cWX71z25/sD79/oxdj2Zg48t9I7/qepLGiszKoDPTmwG5psK4vTUGG39ny/MeyamzQiY/7BXUfi&#xA;uLqMuP8AwyPuv71P8z46wafJ/K8i/wDBBT/xrix7ZG0T70z1+1K+RWgpvFbQCn/GMoe/yxcnVQ/w&#xA;Wu6I+ykN+WsXHRJ5O73DfcqL/bi19kD90T/S/Ux/yHb8fNLLT+4SXr2oeHb54uv7Mh+/91qXnuCv&#xA;mmQDrMsXbvxC/wAMWPacf3586T/8zIgNNsmAACSlR8iv/NuLn9sR9Efet0CD/kHt725x3L+P2QR/&#xA;xrijSx/wSXuklP5bR8tdmbsls5+kugxcTsgfvT/V/UlOvwV8zXsVPt3LbD/Lav8AHFxdVH9/If0m&#xA;RfmelLjT3p9pJFr8ip/ji7DtkbxPva06Gv5b3u1eTs9P9V0/5pxXFH/A5fjuS78vU5eY1NK8IpG+&#xA;WwH8cXH7KH774FJ9bXhrWoIN+NzMK/KQ4uHqRWSX9Y/en35gRGObTK9RaqlB/kn+3Fz+1I0Yf1UN&#xA;p6U8k6q+3xXEK177EH+OLViH+DTP9IMdxde7FXYq7FXYq7FXYq7FXYq7FXYq7FXYqidO0671G7S1&#xA;tU5yv9wHdmPYDFsxYpZJcMeb1zQNEg0fTktY/if7U0vd3PU/LsMXrNLpxihwj4pji5Cw28BnWcxq&#xA;Z1UostByCncgHrTFjwi7rdJ/Nugza1Yw28LrG8cyuWatONCrdO+9cXE12lOaIA70drNk93o93aRA&#xA;c5YWSJTsOVPhH34t+ox8eMxHUILyfplzp2hQ29yvCcszulQacjsDT2xadBhljxAS5pX5X0C/sfMm&#xA;p3U8XCBuawyV2YSSBxx+gb4uLotLOGaciNunxNobzXot/dea9Pmgt5JbdhEJJVBKrwkJbkR9n4d9&#xA;8WvXaecs8SASNvvTLz/YXN5oai2iaV4ZlkZEBZuPFlOw3/axcjtTFKeLYXRV9B025j8oR2MiGO4e&#xA;GUFGFCDKWIBB6faxbNLhI04iedH7bST8vdH1G0vLye7tpIBwEamRStTyqaA9enXFwuysE4SkZAhB&#xA;6xoGpy+dOcdrI1tLPHL6wBKcRx5kt0FN8WnPpZnU2AaJCa/mLpd9eW9lLawvP6DSK6xqWYBwtDQb&#xA;/s4uV2thlMRMRdWiNO0a9XyK+nvGVu5IpSITseTMWVTXpXbFsxaeX5Xgr1EFKPy90bUbfVZ7q6tp&#xA;IYkiaMGRShLsy9AaV2U4uJ2Vp5xyGUgQKSvzB5c1iXzHcpDaSOtzMXikVT6dHNalgKCld8XG1Wky&#xA;HMaidyyD8wtFv7pLKaygadYA0bpGCzgGnE0FSRti5/aunlIRMRdIaz8uaoPI13bGArdzzCdICKOU&#xA;XhsR4/CTTFqx6Sf5WUa9RN18mIfofVhsbK4/5FP/AExdT4GT+afk79Eat/yxT/8AIp/6Yr4GT+af&#xA;k79Eat/yxT/8in/pivgZP5p+Tv0Rq3/LFP8A8in/AKYr4GT+afk79Eat/wAsU/8AyKf+mK+Bk/mn&#xA;5O/RGrf8sU//ACKf+mK+Bk/mn5O/RGrf8sU//Ip/6Yr4GT+afk79Eat/yxT/APIp/wCmK+Bk/mn5&#xA;O/RGrf8ALFP/AMin/pivgZP5p+Tv0Rq3/LFP/wAin/pivgZP5p+Tv0Rq3/LFP/yKf+mK+Bk/mn5L&#xA;4tC1uVuMdhcMf+MTgfSSKYso6bKeUT8k90z8u9XuGDXrLZxdwSHk+gKafecXNw9lZJfV6QzzR9C0&#xA;7SYPSs46Fv7yVt3c/wCUf4dMXe6fTQxCohH4t7//2Q==</xmpGImg:image>
               </rdf:li>
            </rdf:Alt>
         </xmp:Thumbnails>
         <xmpMM:DocumentID>xmp.did:61d7e127-a8d8-4cb1-942e-170877bb8bd7</xmpMM:DocumentID>
         <xmpMM:InstanceID>xmp.iid:61d7e127-a8d8-4cb1-942e-170877bb8bd7</xmpMM:InstanceID>
         <xmpMM:DerivedFrom rdf:parseType="Resource">
            <stRef:instanceID>uuid:981E3EA93164DF118E6D90B556E55533</stRef:instanceID>
            <stRef:documentID>uuid:971E3EA93164DF118E6D90B556E55533</stRef:documentID>
            <stRef:originalDocumentID>uuid:971E3EA93164DF118E6D90B556E55533</stRef:originalDocumentID>
         </xmpMM:DerivedFrom>
         <xmpMM:OriginalDocumentID>uuid:971E3EA93164DF118E6D90B556E55533</xmpMM:OriginalDocumentID>
         <xmpMM:History>
            <rdf:Seq>
               <rdf:li rdf:parseType="Resource">
                  <stEvt:action>saved</stEvt:action>
                  <stEvt:instanceID>xmp.iid:61d7e127-a8d8-4cb1-942e-170877bb8bd7</stEvt:instanceID>
                  <stEvt:when>2015-02-20T15:51:34+10:00</stEvt:when>
                  <stEvt:softwareAgent>Adobe Illustrator CC 2014 (Macintosh)</stEvt:softwareAgent>
                  <stEvt:changed>/</stEvt:changed>
               </rdf:li>
            </rdf:Seq>
         </xmpMM:History>
         <xmpTPg:MaxPageSize rdf:parseType="Resource">
            <stDim:w>92.985001</stDim:w>
            <stDim:h>40.383003</stDim:h>
            <stDim:unit>Pixels</stDim:unit>
         </xmpTPg:MaxPageSize>
         <xmpTPg:NPages>1</xmpTPg:NPages>
         <xmpTPg:HasVisibleTransparency>False</xmpTPg:HasVisibleTransparency>
         <xmpTPg:HasVisibleOverprint>False</xmpTPg:HasVisibleOverprint>
         <xmpTPg:PlateNames>
            <rdf:Seq>
               <rdf:li>Cyan</rdf:li>
               <rdf:li>Yellow</rdf:li>
            </rdf:Seq>
         </xmpTPg:PlateNames>
         <xmpTPg:SwatchGroups>
            <rdf:Seq>
               <rdf:li rdf:parseType="Resource">
                  <xmpG:groupName>Default Swatch Group</xmpG:groupName>
                  <xmpG:groupType>0</xmpG:groupType>
               </rdf:li>
            </rdf:Seq>
         </xmpTPg:SwatchGroups>
      </rdf:Description>
   </rdf:RDF>
</x:xmpmeta>
                                                                                                    
                                                                                                    
                                                                                                    
                                                                                                    
                                                                                                    
                                                                                                    
                                                                                                    
                                                                                                    
                                                                                                    
                                                                                                    
                                                                                                    
                                                                                                    
                                                                                                    
                                                                                                    
                                                                                                    
                                                                                                    
                                                                                                    
                                                                                                    
                                                                                                    
                                                                                                    
                           
<?xpacket end="w"?>
	</metadata>
<path fill="#5CCAA5" d="M39.1,5.1c-0.2,0-0.3,0.1-0.4,0.4L38,10.7l0.7,5.1c0,0.2,0.2,0.4,0.4,0.4c0.2,0,0.3-0.1,0.4-0.4l0,0v0
	c0,0,0,0,0,0l0.8-5.1l-0.8-5.2C39.4,5.3,39.2,5.1,39.1,5.1z M42.9,2.3c0-0.2-0.2-0.4-0.4-0.4c-0.2,0-0.4,0.2-0.4,0.4
	c0,0-0.9,8.4-0.9,8.4l0.9,8.2c0,0.2,0.2,0.4,0.4,0.4c0.2,0,0.4-0.2,0.4-0.4l1-8.2L42.9,2.3z M57.3-5.4c-0.4,0-0.7,0.3-0.7,0.7
	l-0.7,15.4l0.7,9.9c0,0.4,0.3,0.7,0.7,0.7c0.4,0,0.7-0.3,0.7-0.7v0l0.8-9.9L58-4.7C58-5.1,57.7-5.4,57.3-5.4z M49.8,0
	c-0.3,0-0.5,0.2-0.5,0.5l-0.8,10.2l0.8,9.8c0,0.3,0.3,0.5,0.5,0.5c0.3,0,0.5-0.2,0.5-0.5l0.9-9.8L50.4,0.5C50.3,0.2,50.1,0,49.8,0z
	 M64.9,21.3c0.5,0,0.8-0.4,0.9-0.9l0.7-9.8L65.7-9.8c0-0.5-0.4-0.9-0.9-0.9c-0.5,0-0.8,0.4-0.9,0.9c0,0-0.6,20.5-0.6,20.5l0.6,9.8
	C64,20.9,64.4,21.3,64.9,21.3z M80.4,21.3c0.6,0,1.2-0.5,1.2-1.2v0v0l0.5-9.5l-0.5-23.6c0-0.6-0.5-1.2-1.2-1.2
	c-0.6,0-1.2,0.5-1.2,1.2l-0.4,23.6c0,0,0.4,9.5,0.4,9.5C79.2,20.8,79.7,21.3,80.4,21.3z M72.6,21.3c0.6,0,1-0.4,1-1v0l0.6-9.6
	L73.6-9.9c0-0.6-0.5-1-1-1c-0.6,0-1,0.4-1,1L71,10.7l0.5,9.6C71.5,20.9,72,21.3,72.6,21.3z M53.5,21.2c0.3,0,0.6-0.3,0.6-0.6
	l0.9-9.9l-0.9-9.4c0-0.3-0.3-0.6-0.6-0.6c-0.3,0-0.6,0.3-0.6,0.6l-0.8,9.4l0.8,9.9C52.9,21,53.2,21.2,53.5,21.2z M46.1,20.7
	c0.2,0,0.4-0.2,0.5-0.5l1-9.5l-1-9.9c0-0.3-0.2-0.5-0.5-0.5c-0.2,0-0.4,0.2-0.5,0.5c0,0-0.9,9.9-0.9,9.9l0.9,9.5
	C45.7,20.5,45.9,20.7,46.1,20.7z M76.4-10.3c-0.6,0-1.1,0.5-1.1,1.1l-0.5,19.9l0.5,9.6c0,0.6,0.5,1.1,1.1,1.1c0.6,0,1.1-0.5,1.1-1.1
	v0l0.6-9.6L77.5-9.2C77.5-9.8,77-10.3,76.4-10.3z M61.1,21.3c0.4,0,0.8-0.3,0.8-0.8l0.8-9.9L61.8-8.2c0-0.4-0.4-0.8-0.8-0.8
	c-0.4,0-0.8,0.3-0.8,0.8c0,0-0.7,18.9-0.7,18.9l0.7,9.9C60.3,21,60.6,21.3,61.1,21.3z M69.6,20.4L69.6,20.4l0.7-9.7l-0.7-21.1
	c0-0.5-0.4-0.9-0.9-0.9c-0.5,0-0.9,0.4-0.9,0.9l-0.6,21.1l0.6,9.7c0,0.5,0.4,0.9,0.9,0.9C69.2,21.3,69.6,20.9,69.6,20.4L69.6,20.4z
	 M119.5-1.5c-1.6,0-3.1,0.3-4.4,0.9C114.2-10.9,105.6-19,95-19c-2.6,0-5.1,0.5-7.3,1.4c-0.9,0.3-1.1,0.7-1.1,1.3V20
	c0,0.7,0.6,1.3,1.2,1.4c0,0,31.5,0,31.7,0c6.3,0,11.4-5.1,11.4-11.4S125.9-1.5,119.5-1.5z M84.3-16.3c-0.7,0-1.3,0.6-1.3,1.3
	l-0.5,25.8L83,20c0,0.7,0.6,1.2,1.3,1.2c0.7,0,1.2-0.6,1.3-1.3v0l0.6-9.4l-0.6-25.8C85.5-15.8,85-16.3,84.3-16.3z"/>
</svg>
